<svg width="330" height="126" viewBox="0 0 330 126" fill="none" xmlns="http://www.w3.org/2000/svg">
<g clip-path="url(#clip0_7_1265)">
<path d="M134.995 35.8236H127.889V42.9299H134.995V35.8236Z" fill="#1B42EA"/>
<path d="M141.968 34.5237H134.861V41.63H141.968V34.5237Z" fill="#1B42EA"/>
<path d="M149.074 35.8236H141.968V42.9299H149.074V35.8236Z" fill="#1B42EA"/>
<path d="M156.046 34.5237H148.94V41.63H156.046V34.5237Z" fill="#1B42EA"/>
<path d="M163.151 35.8236H156.045V42.9299H163.151V35.8236Z" fill="#1B42EA"/>
<path d="M170.125 34.5237H163.019V41.63H170.125V34.5237Z" fill="#1B42EA"/>
<path d="M177.23 35.8236H170.124V42.9299H177.23V35.8236Z" fill="#1B42EA"/>
<path d="M184.202 34.5237H177.096V41.63H184.202V34.5237Z" fill="#1B42EA"/>
<path d="M188.103 32.271H180.997V39.3773H188.103V32.271Z" fill="#1B42EA"/>
<path d="M191.656 28.1569H184.549V35.2632H191.656V28.1569Z" fill="#1B42EA"/>
<path d="M194.968 23.7486H187.862V30.8549H194.968V23.7486Z" fill="#1B42EA"/>
<path d="M194.433 17.7111H187.327V24.8174H194.433V17.7111Z" fill="#1B42EA"/>
<path d="M193.204 14.1585H186.098V21.2648H193.204V14.1585Z" fill="#1B42EA"/>
<path d="M188.103 12.128H180.997V19.2343H188.103V12.128Z" fill="#1B42EA"/>
<path d="M183.882 8.57538H176.775V15.6817H183.882V8.57538Z" fill="#1B42EA"/>
<path d="M182.333 5.0228H175.227V12.1291H182.333V5.0228Z" fill="#1B42EA"/>
<path d="M182.973 0H175.867V7.10632H182.973V0Z" fill="#1B42EA"/>
<path d="M188.797 0.133026H181.691V7.23934H188.797V0.133026Z" fill="#1B42EA"/>
<path d="M190.14 2.48489H184.516V8.10974H190.14V2.48489Z" fill="#1B42EA"/>
<path d="M196.758 4.30121H189.652V11.4075H196.758V4.30121Z" fill="#1B42EA"/>
<path d="M195.768 5.81345L192.124 9.45758L195.768 13.1017L199.412 9.45758L195.768 5.81345Z" fill="#1B42EA"/>
<path d="M202.876 2.04294H195.77V9.14925H202.876V2.04294Z" fill="#1B42EA"/>
<path d="M206.429 0.747498H199.322V7.85381H206.429V0.747498Z" fill="#1B42EA"/>
<path d="M211.932 0H204.825V7.10632H211.932V0Z" fill="#1B42EA"/>
<path d="M214.657 0.133026H207.55V7.23934H214.657V0.133026Z" fill="#1B42EA"/>
<path d="M218.209 2.698H211.103V9.80431H218.209V2.698Z" fill="#1B42EA"/>
<path d="M218.209 5.59552H211.103V12.7018H218.209V5.59552Z" fill="#1B42EA"/>
<path d="M213.828 9.14926H206.722V16.2556H213.828V9.14926Z" fill="#1B42EA"/>
<path d="M212.349 13.1021H205.243V20.2084H212.349V13.1021Z" fill="#1B42EA"/>
<path d="M208.075 13.1021H200.968V20.2084H208.075V13.1021Z" fill="#1B42EA"/>
<path d="M204.825 15.1867H197.719V22.2931H204.825V15.1867Z" fill="#1B42EA"/>
<path d="M204.521 20.196H197.415V27.3023H204.521V20.196Z" fill="#1B42EA"/>
<path d="M206.429 22.6538H199.322V29.7602H206.429V22.6538Z" fill="#1B42EA"/>
<path d="M205.243 25.9663H198.136V33.0726H205.243V25.9663Z" fill="#1B42EA"/>
<path d="M205.937 31.3093H198.831V38.4156H205.937V31.3093Z" fill="#1B42EA"/>
<path d="M204.12 35.8236H197.014V42.9299H204.12V35.8236Z" fill="#1B42EA"/>
<path d="M203.303 42.9299H196.197V50.0362H203.303V42.9299Z" fill="#1B42EA"/>
<path d="M202.074 48.0733H194.968V55.1796H202.074V48.0733Z" fill="#1B42EA"/>
<path d="M199.322 52.4005H192.216V59.5068H199.322V52.4005Z" fill="#1B42EA"/>
<path d="M195.53 52.0803H188.423V59.1866H195.53V52.0803Z" fill="#1B42EA"/>
<path d="M193.131 56.8765H186.025V63.9828H193.131V56.8765Z" fill="#1B42EA"/>
<path d="M190.079 58.6015H182.973V65.7078H190.079V58.6015Z" fill="#1B42EA"/>
<path d="M182.973 68.1431H175.867V75.2494H182.973V68.1431Z" fill="#1B42EA"/>
<path d="M180.208 70.9211H173.102V78.0274H180.208V70.9211Z" fill="#1B42EA"/>
<path d="M177.786 72.5176H170.679V79.6239H177.786V72.5176Z" fill="#1B42EA"/>
<path d="M170.999 70.9211H163.893V78.0274H170.999V70.9211Z" fill="#1B42EA"/>
<path d="M166.672 68.1431H159.566V75.2494H166.672V68.1431Z" fill="#1B42EA"/>
<path d="M160.582 64.5905H153.476V71.6968H160.582V64.5905Z" fill="#1B42EA"/>
<path d="M153.475 65.0978H146.369V72.2042H153.475V65.0978Z" fill="#1B42EA"/>
<path d="M148.614 65.7066H141.508V72.813H148.614V65.7066Z" fill="#1B42EA"/>
<path d="M142.63 65.0978H135.523V72.2042H142.63V65.0978Z" fill="#1B42EA"/>
<path d="M136.913 63.1879H129.807V70.2942H136.913V63.1879Z" fill="#1B42EA"/>
<path d="M132.318 60.9601H125.211V68.0664H132.318V60.9601Z" fill="#1B42EA"/>
<path d="M126.388 58.6015H119.281V65.7078H126.388V58.6015Z" fill="#1B42EA"/>
<path d="M121.781 54.8076H114.674V61.9139H121.781V54.8076Z" fill="#1B42EA"/>
<path d="M118.576 50.1738H111.469V57.2801H118.576V50.1738Z" fill="#1B42EA"/>
<path d="M120.393 47.7013H113.287V54.8076H120.393V47.7013Z" fill="#1B42EA"/>
<path d="M118.228 44.7632H111.122V51.8695H118.228V44.7632Z" fill="#1B42EA"/>
<path d="M117.106 40.1733H110V47.2796H117.106V40.1733Z" fill="#1B42EA"/>
<path d="M120.659 38.0774H113.553V45.1837H120.659V38.0774Z" fill="#1B42EA"/>
<path d="M124.73 35.0648H117.624V42.1711H124.73V35.0648Z" fill="#1B42EA"/>
<path d="M128.085 36.6196H120.979V43.7259H128.085V36.6196Z" fill="#1B42EA"/>
<path d="M132.056 50.1738H126.805V55.4254H132.056V50.1738Z" fill="#1B42EA"/>
<path d="M126.689 48.0451L122.832 50.7297L125.517 54.5866L129.374 51.902L126.689 48.0451Z" fill="#1B42EA"/>
<path d="M123.418 47.7058L119.561 50.3904L122.246 54.2473L126.103 51.5627L123.418 47.7058Z" fill="#1B42EA"/>
<path d="M135.986 52.1818H130.734V57.4334H135.986V52.1818Z" fill="#1B42EA"/>
<path d="M141.04 54.6543H135.788V59.9059H141.04V54.6543Z" fill="#1B42EA"/>
<path d="M145.256 56.6623H140.004V61.9139H145.256V56.6623Z" fill="#1B42EA"/>
<path d="M149.581 55.7231H144.33V60.9747H149.581V55.7231Z" fill="#1B42EA"/>
<path d="M153.398 57.8044H148.146V63.056H153.398V57.8044Z" fill="#1B42EA"/>
<path d="M157.028 59.5282H151.776V64.7799H157.028V59.5282Z" fill="#1B42EA"/>
<path d="M159.106 62.8148H153.854V68.0664H159.106V62.8148Z" fill="#1B42EA"/>
<path d="M174.306 62.4055H169.055V67.6572H174.306V62.4055Z" fill="#1B42EA"/>
<path d="M170.295 59.5282H165.043V64.7799H170.295V59.5282Z" fill="#1B42EA"/>
<path d="M169.784 56.6623H164.533V61.9139H169.784V56.6623Z" fill="#1B42EA"/>
<path d="M166.959 52.8156L162.013 54.5807L163.778 59.5268L168.724 57.7617L166.959 52.8156Z" fill="#1B42EA"/>
<path d="M171.458 51.4247L166.521 49.6329L164.729 54.5694L169.666 56.3613L171.458 51.4247Z" fill="#1B42EA"/>
<path d="M182.973 74.4748H175.867V81.5811H182.973V74.4748Z" fill="#1B42EA"/>
<path d="M186.527 58.6015H179.42V65.7078H186.527V58.6015Z" fill="#1B42EA"/>
<path d="M184.891 61.5452H177.785V68.6515H184.891V61.5452Z" fill="#1B42EA"/>
<path d="M179.768 61.9184H173.543V68.1431H179.768V61.9184Z" fill="#1B42EA"/>
</g>
<path d="M315.403 124.897H307.327V92.0691H315.403V97.4103C317.748 93.5673 321.396 91.5481 325.109 91.5481C326.542 91.5481 327.779 91.8086 329.082 92.1994L327.584 99.69C326.607 99.1038 325.565 98.7781 324.197 98.7781C319.507 98.7781 315.403 102.621 315.403 113.238V124.897Z" fill="#1B42EA"/>
<path d="M304.609 107.767V111.089H282.007C282.202 114.736 284.742 118.514 289.758 118.514C293.471 118.514 295.75 116.821 297.704 113.434L304.218 115.844C301.678 121.641 297.248 125.419 289.302 125.419C278.033 125.419 273.539 116.234 273.539 108.483C273.539 100.732 278.033 91.5481 289.302 91.5481C300.245 91.5481 304.609 100.602 304.609 107.767ZM289.302 98.4524C285.198 98.4524 282.788 101.579 282.202 104.705H296.336C295.62 101.449 293.601 98.4524 289.302 98.4524Z" fill="#1B42EA"/>
<path d="M246.412 78.7815H254.489V104.966L265.171 92.0691H275.137L261.98 107.181L275.984 124.897H266.083L254.489 109.395V124.897H246.412V78.7815Z" fill="#1B42EA"/>
<path d="M223.109 102.23L216.27 100.667C217.312 95.2608 222.067 91.5481 228.776 91.5481C236.592 91.5481 242.585 94.8048 242.585 105.292V124.897H235.941L235.094 120.729C232.814 123.53 229.688 125.419 224.998 125.419C219.396 125.419 215.032 121.966 215.032 115.453C215.032 108.939 220.764 104.705 229.036 104.705H234.508V103.272C234.508 99.6249 231.772 98.4524 228.776 98.4524C226.496 98.4524 224.151 99.1689 223.109 102.23ZM223.5 115.323C223.5 116.886 224.607 118.514 226.887 118.514C230.6 118.514 234.508 115.974 234.508 111.74V111.089H229.101C225.649 111.089 223.5 112.391 223.5 115.323Z" fill="#1B42EA"/>
<path d="M193.518 124.897H185.441V103.012C185.441 99.69 183.813 98.4524 181.403 98.4524C177.429 98.4524 174.303 103.077 174.303 112.847V124.897H166.226V92.0691H174.303V97.3451C176.713 93.6975 179.514 91.5481 183.748 91.5481C187.786 91.5481 191.499 93.5673 192.932 98.3222C195.277 94.0884 198.924 91.5481 202.963 91.5481C209.085 91.5481 212.733 95.3259 212.733 101.644V124.897H204.656V103.012C204.656 99.69 203.028 98.4524 200.618 98.4524C196.71 98.4524 193.518 102.882 193.518 112.131V124.897Z" fill="#1B42EA"/>
<path d="M151.654 107.767V111.089H129.052C129.248 114.736 131.788 118.514 136.803 118.514C140.516 118.514 142.796 116.821 144.75 113.434L151.263 115.844C148.723 121.641 144.294 125.419 136.347 125.419C125.079 125.419 120.584 116.234 120.584 108.483C120.584 100.732 125.079 91.5481 136.347 91.5481C147.29 91.5481 151.654 100.602 151.654 107.767ZM136.347 98.4524C132.244 98.4524 129.834 101.579 129.248 104.705H143.382C142.665 101.449 140.646 98.4524 136.347 98.4524Z" fill="#1B42EA"/>
<path d="M109.548 78.7815H117.625V124.897H109.548V78.7815Z" fill="#1B42EA"/>
<path d="M86.6291 102.23L79.7898 100.667C80.832 95.2608 85.5869 91.5481 92.2958 91.5481C100.112 91.5481 106.105 94.8048 106.105 105.292V124.897H99.4608L98.614 120.729C96.3342 123.53 93.2077 125.419 88.518 125.419C82.9163 125.419 78.5522 121.966 78.5522 115.453C78.5522 108.939 84.2842 104.705 92.5564 104.705H98.0278V103.272C98.0278 99.6249 95.2921 98.4524 92.2958 98.4524C90.0161 98.4524 87.6712 99.1689 86.6291 102.23ZM87.0199 115.323C87.0199 116.886 88.1272 118.514 90.4069 118.514C94.1196 118.514 98.0278 115.974 98.0278 111.74V111.089H92.6215C89.1693 111.089 87.0199 112.391 87.0199 115.323Z" fill="#1B42EA"/>
<path d="M47.3657 78.7815H55.4425V97.3451C57.5269 94.0232 61.1093 91.5481 65.8642 91.5481C72.0521 91.5481 76.0905 94.7397 76.0905 101.449V124.897H68.0137V104.315C68.0137 100.341 66.4504 98.4524 63.1285 98.4524C59.4158 98.4524 55.4425 102.165 55.4425 111.024V124.897H47.3657V78.7815Z" fill="#1B42EA"/>
<path d="M38.4951 92.0692H46.637L36.1502 124.897H28.9853L23.3185 103.663L17.6517 124.897H10.4868L0 92.0692H8.14194L14.0041 114.606L19.5407 92.0692H27.0964L32.6329 114.606L38.4951 92.0692Z" fill="#1B42EA"/>
<defs>
<clipPath id="clip0_7_1265">
<rect width="108.209" height="81.58" fill="white" transform="translate(110)"/>
</clipPath>
</defs>
</svg>
